<svg viewBox="0 0 200 200" xmlns="http://www.w3.org/2000/svg">
  <path fill="#FF0066" d="M43.5,-70.8C56.5,-67.9,67.1,-56.4,70.4,-43.2C73.7,-29.9,69.7,-15,71,0.7C72.2,16.4,78.8,32.8,74.9,45.1C71.1,57.5,56.9,65.7,42.7,71.9C28.5,78,14.2,82.1,1.3,79.9C-11.7,77.7,-23.4,69.3,-33.4,60.7C-43.5,52.1,-51.8,43.4,-59.5,33.3C-67.3,23.1,-74.4,11.6,-75.1,-0.4C-75.9,-12.4,-70.2,-24.8,-63.9,-37.5C-57.7,-50.2,-50.9,-63.3,-40.1,-67.5C-29.4,-71.7,-14.7,-67.2,0.3,-67.7C15.3,-68.2,30.5,-73.8,43.5,-70.8Z" transform="translate(100 100)" />
</svg>